{"title":"Assassins.Run(2013)1080p.BluRay.H264.AAC.Raven","uid":11220488,"size":1323881875,"categoryP":"video","categoryS":"hd___movies","magnet":"?xt=urn:btih:ee5bcaa51f5de3db317d4078c410c1eb8a8e1e42&amp;dn=Assassins.Run%282013%291080p.BluRay.H264.AAC.Raven&amp;tr=udp%3A%2F%2Ftracker.openbittorrent.com%3A80&amp;tr=udp%3A%2F%2Fopen.demonii.com%3A1337&amp;tr=udp%3A%2F%2Ftracker.coppersurfer.tk%3A6969&amp;tr=udp%3A%2F%2Fexodus.desync.com%3A6969","seeders":1,"leechers":0,"uploader":"Raven1969","files":-1,"time":1413378270,"description":"Assassins.Run(2013)1080p.BluRay.H264.AAC.Raven.mp4\n\n\n\n\n\nEnglish, Danish, Italian, Vietnamese, Spanish, Arabic, Pursian and Finnish Subs included\n\n\n\nScreen images:\n\n\n &lt;a href=&quot;\nhttp://i.imgur.com/Rdmedvf.png&quot; rel=&quot;nofollow&quot; target=&quot;_NEW&quot;&gt;\nhttp://i.imgur.com/Rdmedvf.png&lt;/a&gt;\n\n &lt;a href=&quot;\nhttp://i.imgur.com/5MPHPZX.png&quot; rel=&quot;nofollow&quot; target=&quot;_NEW&quot;&gt;\nhttp://i.imgur.com/5MPHPZX.png&lt;/a&gt;\n\n &lt;a href=&quot;\nhttp://i.imgur.com/qs4wwkv.png&quot; rel=&quot;nofollow&quot; target=&quot;_NEW&quot;&gt;\nhttp://i.imgur.com/qs4wwkv.png&lt;/a&gt;\n\n &lt;a href=&quot;\nhttp://i.imgur.com/EXdpDL2.png&quot; rel=&quot;nofollow&quot; target=&quot;_NEW&quot;&gt;\nhttp://i.imgur.com/EXdpDL2.png&lt;/a&gt;\n\n &lt;a href=&quot;\nhttp://i.imgur.com/TbevUQJ.png&quot; rel=&quot;nofollow&quot; target=&quot;_NEW&quot;&gt;\nhttp://i.imgur.com/TbevUQJ.png&lt;/a&gt;\n &lt;a href=&quot;\nhttp://www.imdb.com/title/tt1502417&quot; rel=&quot;nofollow&quot; target=&quot;_NEW&quot;&gt;\nhttp://www.imdb.com/title/tt1502417&lt;/a&gt;\n\n\n\n\nIMDB Rating:  4.4\n\n\nMaya, a beautiful Russian ballerina, is pursued by the Russian mafia after they kill her husband, a successful American businessman, and financial documents worth hundreds of millions of dollars go missing. Maya is framed by corrupt cops and imprisoned, and then when she is due to be released, her daughter is kidnapped, and she must fight to save her life. However, those who seem to be her friends may really be her enemies... \n\nMaya becomes the target of the Russian mafia after her husband, a successful American businessman, is killed.\n\n\n\n\nGeneral\nFormat                                   : MPEG-4\nFormat profile                           : Base Media\nCodec ID                                 : isom\nFile size                                : 1.23 GiB\nDuration                                 : 1h 28mn\nOverall bit rate mode                    : Variable\nOverall bit rate                         : 1 995 Kbps\nEncoded date                             : UTC 2014-10-11 19:37:09\nTagged date                              : UTC 2014-10-11 19:37:09\n\nVideo\nID                                       : 1\nFormat                                   : AVC\nFormat/Info                              : Advanced Video Codec\nFormat profile                           : &lt;a class=&quot;__cf_email__&quot; href=&quot;/cdn-cgi/l/email-protection&quot; data-cfemail=&quot;ce86a7a9a68e82fae0fe&quot;&gt;[email&amp;#160;protected]&lt;/a&gt;&lt;script cf-hash='f9e31' type=&quot;text/javascript&quot;&gt;\n/* &lt;![CDATA[ */!function(){try{var t=&quot;currentScript&quot;in document?document.currentScript:function(){for(var t=document.getElementsByTagName(&quot;script&quot;),e=t.length;e--;)if(t[e].getAttribute(&quot;cf-hash&quot;))return t[e]}();if(t&amp;&amp;t.previousSibling){var e,r,n,i,c=t.previousSibling,a=c.getAttribute(&quot;data-cfemail&quot;);if(a){for(e=&quot;&quot;,r=parseInt(a.substr(0,2),16),n=2;a.length-n;n+=2)i=parseInt(a.substr(n,2),16)^r,e+=String.fromCharCode(i);e=document.createTextNode(e),c.parentNode.replaceChild(e,c)}}}catch(u){}}();/* ]]&gt; */&lt;/script&gt;\nFormat settings, CABAC                   : Yes\nFormat settings, ReFrames                : 4 frames\nCodec ID                                 : avc1\nCodec ID/Info                            : Advanced Video Coding\nDuration                                 : 1h 28mn\nBit rate                                 : 1 900 Kbps\nMaximum bit rate                         : 10.3 Mbps\nWidth                                    : 1 920 pixels\nHeight                                   : 1 080 pixels\nDisplay aspect ratio                     : 16:9\nFrame rate mode                          : Constant\nFrame rate                               : 23.976 fps\nColor space                              : YUV\nChroma subsampling                       : 4:2:0\nBit depth                                : 8 bits\nScan type                                : Progressive\nBits/(Pixel*Frame)                       : 0.038\nStream size                              : 1.17 GiB (95%)\nWriting library                          : x264 core 132 \nEncoded date                             : UTC 2014-10-11 19:37:09\nTagged date                              : UTC 2014-10-11 19:38:22\n\nAudio\nID                                       : 2\nFormat                                   : AAC\nFormat/Info                              : Advanced Audio Codec\nFormat profile                           : LC\nCodec ID                                 : 40\nDuration                                 : 1h 28mn\nBit rate mode                            : Variable\nBit rate                                 : 92.0 Kbps\nMaximum bit rate                         : 135 Kbps\nChannel(s)                               : 2 channels\nChannel positions                        : Front: L R\nSampling rate                            : 48.0 KHz\nCompression mode                         : Lossy\nStream size                              : 58.0 MiB (5%)\nEncoded date                             : UTC 2014-10-11 18:05:01\nTagged date                              : UTC 2014-10-11 19:38:22\n\n\n\n\nPLEASE  SEED FOR AS LONG AS POSSIBLE TO KEEP THE TORRENT ALIVE :-)","torrent":{"xt":"urn:btih:ee5bcaa51f5de3db317d4078c410c1eb8a8e1e42","amp;dn":"Assassins.Run%282013%291080p.BluRay.H264.AAC.Raven","amp;tr":["udp%3A%2F%2Ftracker.openbittorrent.com%3A80","udp%3A%2F%2Fopen.demonii.com%3A1337","udp%3A%2F%2Ftracker.coppersurfer.tk%3A6969","udp%3A%2F%2Fexodus.desync.com%3A6969"],"infoHash":"ee5bcaa51f5de3db317d4078c410c1eb8a8e1e42","infoHashBuffer":{"type":"Buffer","data":[238,91,202,165,31,93,227,219,49,125,64,120,196,16,193,235,138,142,30,66]},"announce":[],"urlList":[]}}